<svg xmlns="http://www.w3.org/2000/svg" width="3000" height="1298" version="1.1"><style>line.col{stroke-width:1;stroke:#000;stroke-dasharray:2 5}</style><defs><filter id="bgwhite" width="1" height="1" x="0" y="0"><feFlood flood-color="#fff"/><feComposite in="SourceGraphic" operator="over"/></filter></defs><g><line x1="100" x2="100" y1="150" y2="100%" class="col"/><line x1="150" x2="150" y1="150" y2="100%" class="col"/><line x1="200" x2="200" y1="150" y2="100%" class="col"/><line x1="250" x2="250" y1="150" y2="100%" class="col"/><line x1="300" x2="300" y1="150" y2="100%" class="col"/><line x1="350" x2="350" y1="150" y2="100%" class="col"/><line x1="400" x2="400" y1="150" y2="100%" class="col"/><line x1="450" x2="450" y1="150" y2="100%" class="col"/><line x1="500" x2="500" y1="150" y2="100%" class="col"/><line x1="550" x2="550" y1="150" y2="100%" class="col"/><line x1="600" x2="600" y1="150" y2="100%" class="col"/><line x1="650" x2="650" y1="150" y2="100%" class="col"/><line x1="700" x2="700" y1="150" y2="100%" class="col"/><line x1="750" x2="750" y1="150" y2="100%" class="col"/><line x1="800" x2="800" y1="150" y2="100%" class="col"/><line x1="850" x2="850" y1="150" y2="100%" class="col"/><line x1="900" x2="900" y1="150" y2="100%" class="col"/><line x1="950" x2="950" y1="150" y2="100%" class="col"/><line x1="1000" x2="1000" y1="150" y2="100%" class="col"/><line x1="1050" x2="1050" y1="150" y2="100%" class="col"/><line x1="1100" x2="1100" y1="150" y2="100%" class="col"/><line x1="1150" x2="1150" y1="150" y2="100%" class="col"/><line x1="1200" x2="1200" y1="150" y2="100%" class="col"/><line x1="1250" x2="1250" y1="150" y2="100%" class="col"/><line x1="1300" x2="1300" y1="150" y2="100%" class="col"/><line x1="1350" x2="1350" y1="150" y2="100%" class="col"/><line x1="1400" x2="1400" y1="150" y2="100%" class="col"/><path id="p1" fill="red" fill-opacity=".25" stroke="red" d="M 80,200 120,200 100,205 z"><set attributeName="stroke-width" begin="mouseover" end="mouseout" to="2"/></path><line x1="117" x2="133" y1="200" y2="200" stroke="#ccc" stroke-width="1"/><rect id="r2" width="40" height="29" x="130" y="200" fill="red" fill-opacity=".25" stroke="none" rx="5" ry="5"/><line x1="167" x2="183" y1="229" y2="229" stroke="#ccc" stroke-width="1"/><rect id="r3" width="40" height="84" x="180" y="229" fill="red" fill-opacity=".25" stroke="none" rx="5" ry="5"/><line x1="217" x2="233" y1="313" y2="313" stroke="#ccc" stroke-width="1"/><rect id="r4" width="40" height="15" x="230" y="313" fill="red" fill-opacity=".25" stroke="none" rx="5" ry="5"/><line x1="267" x2="283" y1="328" y2="328" stroke="#ccc" stroke-width="1"/><rect id="r5" width="40" height="58" x="280" y="328" fill="red" fill-opacity=".25" stroke="none" rx="5" ry="5"/><line x1="317" x2="333" y1="387" y2="387" stroke="#ccc" stroke-width="1"/><rect id="r6" width="40" height="19" x="330" y="387" fill="red" fill-opacity=".25" stroke="none" rx="5" ry="5"/><line x1="367" x2="383" y1="406" y2="406" stroke="#ccc" stroke-width="1"/><rect id="r7" width="40" height="81" x="380" y="406" fill="red" fill-opacity=".25" stroke="none" rx="5" ry="5"/><line x1="417" x2="433" y1="487" y2="487" stroke="#ccc" stroke-width="1"/><rect id="r8" width="40" height="17" x="430" y="487" fill="red" fill-opacity=".25" stroke="none" rx="5" ry="5"/><line x1="467" x2="483" y1="504" y2="504" stroke="#ccc" stroke-width="1"/><rect id="r9" width="40" height="48" x="480" y="504" fill="red" fill-opacity=".25" stroke="none" rx="5" ry="5"/><line x1="517" x2="533" y1="553" y2="553" stroke="#ccc" stroke-width="1"/><rect id="r10" width="40" height="15" x="530" y="553" fill="red" fill-opacity=".25" stroke="none" rx="5" ry="5"/><line x1="517" x2="533" y1="553" y2="553" stroke="#ccc" stroke-width="1"/><rect id="r11" width="40" height="51" x="534" y="553" fill="red" fill-opacity=".25" stroke="none" rx="5" ry="5"/><line x1="567" x2="583" y1="568" y2="568" stroke="#ccc" stroke-width="1"/><rect id="r12" width="40" height="85" x="580" y="568" fill="red" fill-opacity=".25" stroke="none" rx="5" ry="5"/><line x1="567" x2="583" y1="605" y2="605" stroke="#ccc" stroke-width="1"/><rect id="r13" width="40" height="140" x="580" y="605" fill="red" fill-opacity=".25" stroke="none" rx="5" ry="5"/><line x1="567" x2="583" y1="568" y2="568" stroke="#ccc" stroke-width="1"/><rect id="r14" width="40" height="203" x="584" y="568" fill="red" fill-opacity=".25" stroke="none" rx="5" ry="5"/><line x1="567" x2="583" y1="605" y2="605" stroke="#ccc" stroke-width="1"/><rect id="r15" width="40" height="255" x="584" y="605" fill="red" fill-opacity=".25" stroke="none" rx="5" ry="5"/><line x1="617" x2="683" y1="771" y2="771" stroke="#ccc" stroke-width="1"/><rect id="r16" width="40" height="111" x="680" y="771" fill="red" fill-opacity=".25" stroke="none" rx="5" ry="5"/><line x1="617" x2="683" y1="860" y2="860" stroke="#ccc" stroke-width="1"/><rect id="r17" width="40" height="85" x="680" y="860" fill="red" fill-opacity=".25" stroke="none" rx="5" ry="5"/><line x1="717" x2="733" y1="882" y2="882" stroke="#ccc" stroke-width="1"/><rect id="r18" width="40" height="120" x="730" y="882" fill="red" fill-opacity=".25" stroke="none" rx="5" ry="5"/><line x1="767" x2="1133" y1="1003" y2="1003" stroke="#ccc" stroke-width="1"/><rect id="r19" width="40" height="33" x="1130" y="1003" fill="red" fill-opacity=".25" stroke="none" rx="5" ry="5"/><line x1="767" x2="1133" y1="1003" y2="1003" stroke="#ccc" stroke-width="1"/><rect id="r20" width="40" height="43" x="1134" y="1003" fill="red" fill-opacity=".25" stroke="none" rx="5" ry="5"/><line x1="1167" x2="1183" y1="1036" y2="1036" stroke="#ccc" stroke-width="1"/><rect id="r21" width="40" height="60" x="1180" y="1036" fill="red" fill-opacity=".25" stroke="none" rx="5" ry="5"/><line x1="1167" x2="1183" y1="1046" y2="1046" stroke="#ccc" stroke-width="1"/><rect id="r22" width="40" height="106" x="1180" y="1046" fill="red" fill-opacity=".25" stroke="none" rx="5" ry="5"/><line x1="1217" x2="1233" y1="1096" y2="1096" stroke="#ccc" stroke-width="1"/><rect id="r23" width="40" height="142" x="1230" y="1096" fill="red" fill-opacity=".25" stroke="none" rx="5" ry="5"/><line x1="1267" x2="1283" y1="1239" y2="1239" stroke="#ccc" stroke-width="1"/><rect id="r24" width="40" height="4" x="1280" y="1239" fill="red" fill-opacity=".25" stroke="none" rx="5" ry="5"/><line x1="1317" x2="1333" y1="1243" y2="1243" stroke="#ccc" stroke-width="1"/><rect id="r25" width="40" height="10" x="1330" y="1243" fill="red" fill-opacity=".25" stroke="none" rx="5" ry="5"/><line x1="1367" x2="1383" y1="1253" y2="1253" stroke="#ccc" stroke-width="1"/><path id="p27" fill="red" fill-opacity=".25" stroke="red" d="M 1384,1253 1416,1253 1400,1258 z"><set attributeName="stroke-width" begin="mouseover" end="mouseout" to="2"/></path><line x1="1217" x2="1233" y1="1153" y2="1153" stroke="#ccc" stroke-width="1"/><path id="p29" fill="red" fill-opacity=".25" stroke="red" d="M 1234,1153 1266,1153 1250,1158 z"><set attributeName="stroke-width" begin="mouseover" end="mouseout" to="2"/></path><line x1="617" x2="633" y1="745" y2="745" stroke="#ccc" stroke-width="1"/><path id="p31" fill="red" fill-opacity=".25" stroke="red" d="M 634,745 666,745 650,750 z"><set attributeName="stroke-width" begin="mouseover" end="mouseout" to="2"/></path><line x1="717" x2="783" y1="946" y2="946" stroke="#ccc" stroke-width="1"/><path id="p33" fill="red" fill-opacity=".25" stroke="red" d="M 784,946 816,946 800,951 z"><set attributeName="stroke-width" begin="mouseover" end="mouseout" to="2"/></path><line x1="617" x2="633" y1="654" y2="654" stroke="#ccc" stroke-width="1"/><path id="p35" fill="red" fill-opacity=".25" stroke="red" d="M 634,654 666,654 650,659 z"><set attributeName="stroke-width" begin="mouseover" end="mouseout" to="2"/></path><rect id="fr2" width="40" height="29" x="130" y="200" fill="none" stroke="red" rx="5" ry="5"><set attributeName="stroke-width" begin="mouseover;r2.mouseover" end="mouseout;r2.mouseout" to="3"/></rect><rect id="fr3" width="40" height="84" x="180" y="229" fill="none" stroke="red" rx="5" ry="5"><set attributeName="stroke-width" begin="mouseover;r3.mouseover" end="mouseout;r3.mouseout" to="3"/></rect><rect id="fr4" width="40" height="15" x="230" y="313" fill="none" stroke="red" rx="5" ry="5"><set attributeName="stroke-width" begin="mouseover;r4.mouseover" end="mouseout;r4.mouseout" to="3"/></rect><rect id="fr5" width="40" height="58" x="280" y="328" fill="none" stroke="red" rx="5" ry="5"><set attributeName="stroke-width" begin="mouseover;r5.mouseover" end="mouseout;r5.mouseout" to="3"/></rect><rect id="fr6" width="40" height="19" x="330" y="387" fill="none" stroke="red" rx="5" ry="5"><set attributeName="stroke-width" begin="mouseover;r6.mouseover" end="mouseout;r6.mouseout" to="3"/></rect><rect id="fr7" width="40" height="81" x="380" y="406" fill="none" stroke="red" rx="5" ry="5"><set attributeName="stroke-width" begin="mouseover;r7.mouseover" end="mouseout;r7.mouseout" to="3"/></rect><rect id="fr8" width="40" height="17" x="430" y="487" fill="none" stroke="red" rx="5" ry="5"><set attributeName="stroke-width" begin="mouseover;r8.mouseover" end="mouseout;r8.mouseout" to="3"/></rect><rect id="fr9" width="40" height="48" x="480" y="504" fill="none" stroke="red" rx="5" ry="5"><set attributeName="stroke-width" begin="mouseover;r9.mouseover" end="mouseout;r9.mouseout" to="3"/></rect><rect id="fr10" width="40" height="15" x="530" y="553" fill="none" stroke="red" rx="5" ry="5"><set attributeName="stroke-width" begin="mouseover;r10.mouseover" end="mouseout;r10.mouseout" to="3"/></rect><rect id="fr11" width="40" height="51" x="534" y="553" fill="none" stroke="red" rx="5" ry="5"><set attributeName="stroke-width" begin="mouseover;r11.mouseover" end="mouseout;r11.mouseout" to="3"/></rect><rect id="fr12" width="40" height="85" x="580" y="568" fill="none" stroke="red" rx="5" ry="5"><set attributeName="stroke-width" begin="mouseover;r12.mouseover" end="mouseout;r12.mouseout" to="3"/></rect><rect id="fr13" width="40" height="140" x="580" y="605" fill="none" stroke="red" rx="5" ry="5"><set attributeName="stroke-width" begin="mouseover;r13.mouseover" end="mouseout;r13.mouseout" to="3"/></rect><rect id="fr14" width="40" height="203" x="584" y="568" fill="none" stroke="red" rx="5" ry="5"><set attributeName="stroke-width" begin="mouseover;r14.mouseover" end="mouseout;r14.mouseout" to="3"/></rect><rect id="fr15" width="40" height="255" x="584" y="605" fill="none" stroke="red" rx="5" ry="5"><set attributeName="stroke-width" begin="mouseover;r15.mouseover" end="mouseout;r15.mouseout" to="3"/></rect><rect id="fr16" width="40" height="111" x="680" y="771" fill="none" stroke="red" rx="5" ry="5"><set attributeName="stroke-width" begin="mouseover;r16.mouseover" end="mouseout;r16.mouseout" to="3"/></rect><rect id="fr17" width="40" height="85" x="680" y="860" fill="none" stroke="red" rx="5" ry="5"><set attributeName="stroke-width" begin="mouseover;r17.mouseover" end="mouseout;r17.mouseout" to="3"/></rect><rect id="fr18" width="40" height="120" x="730" y="882" fill="none" stroke="red" rx="5" ry="5"><set attributeName="stroke-width" begin="mouseover;r18.mouseover" end="mouseout;r18.mouseout" to="3"/></rect><rect id="fr19" width="40" height="33" x="1130" y="1003" fill="none" stroke="red" rx="5" ry="5"><set attributeName="stroke-width" begin="mouseover;r19.mouseover" end="mouseout;r19.mouseout" to="3"/></rect><rect id="fr20" width="40" height="43" x="1134" y="1003" fill="none" stroke="red" rx="5" ry="5"><set attributeName="stroke-width" begin="mouseover;r20.mouseover" end="mouseout;r20.mouseout" to="3"/></rect><rect id="fr21" width="40" height="60" x="1180" y="1036" fill="none" stroke="red" rx="5" ry="5"><set attributeName="stroke-width" begin="mouseover;r21.mouseover" end="mouseout;r21.mouseout" to="3"/></rect><rect id="fr22" width="40" height="106" x="1180" y="1046" fill="none" stroke="red" rx="5" ry="5"><set attributeName="stroke-width" begin="mouseover;r22.mouseover" end="mouseout;r22.mouseout" to="3"/></rect><rect id="fr23" width="40" height="142" x="1230" y="1096" fill="none" stroke="red" rx="5" ry="5"><set attributeName="stroke-width" begin="mouseover;r23.mouseover" end="mouseout;r23.mouseout" to="3"/></rect><rect id="fr24" width="40" height="4" x="1280" y="1239" fill="none" stroke="red" rx="5" ry="5"><set attributeName="stroke-width" begin="mouseover;r24.mouseover" end="mouseout;r24.mouseout" to="3"/></rect><rect id="fr25" width="40" height="10" x="1330" y="1243" fill="none" stroke="red" rx="5" ry="5"><set attributeName="stroke-width" begin="mouseover;r25.mouseover" end="mouseout;r25.mouseout" to="3"/></rect><text x="100" y="140" dominant-baseline="middle" text-anchor="start" transform="rotate(-90,100,140)">ip.entry</text><text x="150" y="140" dominant-baseline="middle" text-anchor="start" transform="rotate(-90,150,140)">sdap.mapping</text><text x="200" y="140" dominant-baseline="middle" text-anchor="start" transform="rotate(-90,200,140)">sdap.header</text><text x="250" y="140" dominant-baseline="middle" text-anchor="start" transform="rotate(-90,250,140)">pdcp.txbuf</text><text x="300" y="140" dominant-baseline="middle" text-anchor="start" transform="rotate(-90,300,140)">pdcp.rohc</text><text x="350" y="140" dominant-baseline="middle" text-anchor="start" transform="rotate(-90,350,140)">pdcp.intcipher</text><text x="400" y="140" dominant-baseline="middle" text-anchor="start" transform="rotate(-90,400,140)">pdcp.header</text><text x="450" y="140" dominant-baseline="middle" text-anchor="start" transform="rotate(-90,450,140)">pdcp.routing</text><text x="500" y="140" dominant-baseline="middle" text-anchor="start" transform="rotate(-90,500,140)">rlc.am.txbuf</text><text x="550" y="140" dominant-baseline="middle" text-anchor="start" transform="rotate(-90,550,140)">rlc.am.seg</text><text x="600" y="140" dominant-baseline="middle" text-anchor="start" transform="rotate(-90,600,140)">rlc.am.header</text><text x="650" y="140" dominant-baseline="middle" text-anchor="start" transform="rotate(-90,650,140)">rlc.am.retbuf</text><text x="700" y="140" dominant-baseline="middle" text-anchor="start" transform="rotate(-90,700,140)">mac.mux</text><text x="750" y="140" dominant-baseline="middle" text-anchor="start" transform="rotate(-90,750,140)">mac.harq.0</text><text x="800" y="140" dominant-baseline="middle" text-anchor="start" transform="rotate(-90,800,140)">mac.harq.1</text><text x="850" y="140" dominant-baseline="middle" text-anchor="start" transform="rotate(-90,850,140)">mac.harq.2</text><text x="900" y="140" dominant-baseline="middle" text-anchor="start" transform="rotate(-90,900,140)">mac.harq.3</text><text x="950" y="140" dominant-baseline="middle" text-anchor="start" transform="rotate(-90,950,140)">mac.harq.4</text><text x="1000" y="140" dominant-baseline="middle" text-anchor="start" transform="rotate(-90,1000,140)">mac.harq.5</text><text x="1050" y="140" dominant-baseline="middle" text-anchor="start" transform="rotate(-90,1050,140)">mac.harq.6</text><text x="1100" y="140" dominant-baseline="middle" text-anchor="start" transform="rotate(-90,1100,140)">mac.harq.7</text><text x="1150" y="140" dominant-baseline="middle" text-anchor="start" transform="rotate(-90,1150,140)">phy.crc</text><text x="1200" y="140" dominant-baseline="middle" text-anchor="start" transform="rotate(-90,1200,140)">phy.cbseg</text><text x="1250" y="140" dominant-baseline="middle" text-anchor="start" transform="rotate(-90,1250,140)">phy.msc</text><text x="1300" y="140" dominant-baseline="middle" text-anchor="start" transform="rotate(-90,1300,140)">phy.mod</text><text x="1350" y="140" dominant-baseline="middle" text-anchor="start" transform="rotate(-90,1350,140)">phy.map</text><text x="1400" y="140" dominant-baseline="middle" text-anchor="start" transform="rotate(-90,1400,140)">phy.ant</text><text x="100" y="195" dominant-baseline="text-bottom" filter="url(#bgwhite)" font-size="10" text-anchor="middle">ip0</text><text x="150" y="195" fill="#000" dominant-baseline="text-bottom" font-size="10" text-anchor="start" visibility="hidden"><set attributeName="visibility" begin="r2.mouseover;fr2.mouseover" end="r2.mouseout;fr2.mouseout" to="visible"/> <set attributeName="filter" begin="r2.mouseover;fr2.mouseover" end="r2.mouseout;fr2.mouseout" to="url(#bgwhite)"/> <tspan x="150" dy="-3em">ID: ip0.qfi1</tspan><tspan x="150" dy="1em">LAY: sdap.mapping</tspan><tspan x="150" dy="1em">DUR: 0.000291</tspan><tspan x="150" dy="1em">RTS: 0.000000</tspan></text><text x="200" y="224" fill="#000" dominant-baseline="text-bottom" font-size="10" text-anchor="start" visibility="hidden"><set attributeName="visibility" begin="r3.mouseover;fr3.mouseover" end="r3.mouseout;fr3.mouseout" to="visible"/> <set attributeName="filter" begin="r3.mouseover;fr3.mouseover" end="r3.mouseout;fr3.mouseout" to="url(#bgwhite)"/> <tspan x="200" dy="-3em">ID: ip0.qfi1.drb2</tspan><tspan x="200" dy="1em">LAY: sdap.header</tspan><tspan x="200" dy="1em">DUR: 0.000845</tspan><tspan x="200" dy="1em">RTS: 0.000291</tspan></text><text x="250" y="308" fill="#000" dominant-baseline="text-bottom" font-size="10" text-anchor="start" visibility="hidden"><set attributeName="visibility" begin="r4.mouseover;fr4.mouseover" end="r4.mouseout;fr4.mouseout" to="visible"/> <set attributeName="filter" begin="r4.mouseover;fr4.mouseover" end="r4.mouseout;fr4.mouseout" to="url(#bgwhite)"/> <tspan x="250" dy="-3em">ID: ip0.qfi1.drb2.pdcp0</tspan><tspan x="250" dy="1em">LAY: pdcp.txbuf</tspan><tspan x="250" dy="1em">DUR: 0.000152</tspan><tspan x="250" dy="1em">RTS: 0.001136</tspan></text><text x="300" y="323" fill="#000" dominant-baseline="text-bottom" font-size="10" text-anchor="start" visibility="hidden"><set attributeName="visibility" begin="r5.mouseover;fr5.mouseover" end="r5.mouseout;fr5.mouseout" to="visible"/> <set attributeName="filter" begin="r5.mouseover;fr5.mouseover" end="r5.mouseout;fr5.mouseout" to="url(#bgwhite)"/> <tspan x="300" dy="-3em">ID: ip0.qfi1.drb2.pdcp0</tspan><tspan x="300" dy="1em">LAY: pdcp.rohc</tspan><tspan x="300" dy="1em">DUR: 0.000585</tspan><tspan x="300" dy="1em">RTS: 0.001288</tspan></text><text x="350" y="382" fill="#000" dominant-baseline="text-bottom" font-size="10" text-anchor="start" visibility="hidden"><set attributeName="visibility" begin="r6.mouseover;fr6.mouseover" end="r6.mouseout;fr6.mouseout" to="visible"/> <set attributeName="filter" begin="r6.mouseover;fr6.mouseover" end="r6.mouseout;fr6.mouseout" to="url(#bgwhite)"/> <tspan x="350" dy="-3em">ID: ip0.qfi1.drb2.pdcp0</tspan><tspan x="350" dy="1em">LAY: pdcp.intcipher</tspan><tspan x="350" dy="1em">DUR: 0.000193</tspan><tspan x="350" dy="1em">RTS: 0.001873</tspan></text><text x="400" y="401" fill="#000" dominant-baseline="text-bottom" font-size="10" text-anchor="start" visibility="hidden"><set attributeName="visibility" begin="r7.mouseover;fr7.mouseover" end="r7.mouseout;fr7.mouseout" to="visible"/> <set attributeName="filter" begin="r7.mouseover;fr7.mouseover" end="r7.mouseout;fr7.mouseout" to="url(#bgwhite)"/> <tspan x="400" dy="-3em">ID: ip0.qfi1.drb2.pdcp0</tspan><tspan x="400" dy="1em">LAY: pdcp.header</tspan><tspan x="400" dy="1em">DUR: 0.000810</tspan><tspan x="400" dy="1em">RTS: 0.002066</tspan></text><text x="450" y="482" fill="#000" dominant-baseline="text-bottom" font-size="10" text-anchor="start" visibility="hidden"><set attributeName="visibility" begin="r8.mouseover;fr8.mouseover" end="r8.mouseout;fr8.mouseout" to="visible"/> <set attributeName="filter" begin="r8.mouseover;fr8.mouseover" end="r8.mouseout;fr8.mouseout" to="url(#bgwhite)"/> <tspan x="450" dy="-3em">ID: ip0.qfi1.drb2.pdcp0</tspan><tspan x="450" dy="1em">LAY: pdcp.routing</tspan><tspan x="450" dy="1em">DUR: 0.000173</tspan><tspan x="450" dy="1em">RTS: 0.002876</tspan></text><text x="500" y="499" fill="#000" dominant-baseline="text-bottom" font-size="10" text-anchor="start" visibility="hidden"><set attributeName="visibility" begin="r9.mouseover;fr9.mouseover" end="r9.mouseout;fr9.mouseout" to="visible"/> <set attributeName="filter" begin="r9.mouseover;fr9.mouseover" end="r9.mouseout;fr9.mouseout" to="url(#bgwhite)"/> <tspan x="500" dy="-3em">ID: ip0.qfi1.drb2.pdcp0.rlc1</tspan><tspan x="500" dy="1em">LAY: rlc.am.txbuf</tspan><tspan x="500" dy="1em">DUR: 0.000484</tspan><tspan x="500" dy="1em">RTS: 0.003049</tspan></text><text x="550" y="548" fill="#000" dominant-baseline="text-bottom" font-size="10" text-anchor="start" visibility="hidden"><set attributeName="visibility" begin="r10.mouseover;fr10.mouseover" end="r10.mouseout;fr10.mouseout" to="visible"/> <set attributeName="filter" begin="r10.mouseover;fr10.mouseover" end="r10.mouseout;fr10.mouseout" to="url(#bgwhite)"/> <tspan x="550" dy="-3em">ID: ip0.qfi1.drb2.pdcp0.rlc1.roff0</tspan><tspan x="550" dy="1em">LAY: rlc.am.seg</tspan><tspan x="550" dy="1em">DUR: 0.000151</tspan><tspan x="550" dy="1em">RTS: 0.003533</tspan></text><text x="554" y="548" fill="#000" dominant-baseline="text-bottom" font-size="10" text-anchor="start" visibility="hidden"><set attributeName="visibility" begin="r11.mouseover;fr11.mouseover" end="r11.mouseout;fr11.mouseout" to="visible"/> <set attributeName="filter" begin="r11.mouseover;fr11.mouseover" end="r11.mouseout;fr11.mouseout" to="url(#bgwhite)"/> <tspan x="554" dy="-3em">ID: ip0.qfi1.drb2.pdcp0.rlc1.roff1</tspan><tspan x="554" dy="1em">LAY: rlc.am.seg</tspan><tspan x="554" dy="1em">DUR: 0.000517</tspan><tspan x="554" dy="1em">RTS: 0.003533</tspan></text><text x="600" y="563" fill="#000" dominant-baseline="text-bottom" font-size="10" text-anchor="start" visibility="hidden"><set attributeName="visibility" begin="r12.mouseover;fr12.mouseover" end="r12.mouseout;fr12.mouseout" to="visible"/> <set attributeName="filter" begin="r12.mouseover;fr12.mouseover" end="r12.mouseout;fr12.mouseout" to="url(#bgwhite)"/> <tspan x="600" dy="-3em">ID: ip0.qfi1.drb2.pdcp0.rlc1.roff0</tspan><tspan x="600" dy="1em">LAY: rlc.am.header</tspan><tspan x="600" dy="1em">DUR: 0.000857</tspan><tspan x="600" dy="1em">RTS: 0.003684</tspan></text><text x="600" y="600" fill="#000" dominant-baseline="text-bottom" font-size="10" text-anchor="start" visibility="hidden"><set attributeName="visibility" begin="r13.mouseover;fr13.mouseover" end="r13.mouseout;fr13.mouseout" to="visible"/> <set attributeName="filter" begin="r13.mouseover;fr13.mouseover" end="r13.mouseout;fr13.mouseout" to="url(#bgwhite)"/> <tspan x="600" dy="-3em">ID: ip0.qfi1.drb2.pdcp0.rlc1.roff1</tspan><tspan x="600" dy="1em">LAY: rlc.am.header</tspan><tspan x="600" dy="1em">DUR: 0.001401</tspan><tspan x="600" dy="1em">RTS: 0.004050</tspan></text><text x="604" y="563" fill="#000" dominant-baseline="text-bottom" font-size="10" text-anchor="start" visibility="hidden"><set attributeName="visibility" begin="r14.mouseover;fr14.mouseover" end="r14.mouseout;fr14.mouseout" to="visible"/> <set attributeName="filter" begin="r14.mouseover;fr14.mouseover" end="r14.mouseout;fr14.mouseout" to="url(#bgwhite)"/> <tspan x="604" dy="-3em">ID: ip0.qfi1.drb2.pdcp0.rlc1.roff0.lc32</tspan><tspan x="604" dy="1em">LAY: rlc.am.header</tspan><tspan x="604" dy="1em">DUR: 0.002032</tspan><tspan x="604" dy="1em">RTS: 0.003684</tspan></text><text x="604" y="600" fill="#000" dominant-baseline="text-bottom" font-size="10" text-anchor="start" visibility="hidden"><set attributeName="visibility" begin="r15.mouseover;fr15.mouseover" end="r15.mouseout;fr15.mouseout" to="visible"/> <set attributeName="filter" begin="r15.mouseover;fr15.mouseover" end="r15.mouseout;fr15.mouseout" to="url(#bgwhite)"/> <tspan x="604" dy="-3em">ID: ip0.qfi1.drb2.pdcp0.rlc1.roff1.lc32</tspan><tspan x="604" dy="1em">LAY: rlc.am.header</tspan><tspan x="604" dy="1em">DUR: 0.002559</tspan><tspan x="604" dy="1em">RTS: 0.004050</tspan></text><text x="700" y="766" fill="#000" dominant-baseline="text-bottom" font-size="10" text-anchor="start" visibility="hidden"><set attributeName="visibility" begin="r16.mouseover;fr16.mouseover" end="r16.mouseout;fr16.mouseout" to="visible"/> <set attributeName="filter" begin="r16.mouseover;fr16.mouseover" end="r16.mouseout;fr16.mouseout" to="url(#bgwhite)"/> <tspan x="700" dy="-3em">ID: ip0.qfi1.drb2.pdcp0.rlc1.roff0.lc32.tb0</tspan><tspan x="700" dy="1em">LAY: mac.mux</tspan><tspan x="700" dy="1em">DUR: 0.001113</tspan><tspan x="700" dy="1em">RTS: 0.005716</tspan></text><text x="700" y="855" fill="#000" dominant-baseline="text-bottom" font-size="10" text-anchor="start" visibility="hidden"><set attributeName="visibility" begin="r17.mouseover;fr17.mouseover" end="r17.mouseout;fr17.mouseout" to="visible"/> <set attributeName="filter" begin="r17.mouseover;fr17.mouseover" end="r17.mouseout;fr17.mouseout" to="url(#bgwhite)"/> <tspan x="700" dy="-3em">ID: ip0.qfi1.drb2.pdcp0.rlc1.roff1.lc32.tb1</tspan><tspan x="700" dy="1em">LAY: mac.mux</tspan><tspan x="700" dy="1em">DUR: 0.000851</tspan><tspan x="700" dy="1em">RTS: 0.006609</tspan></text><text x="750" y="877" fill="#000" dominant-baseline="text-bottom" font-size="10" text-anchor="start" visibility="hidden"><set attributeName="visibility" begin="r18.mouseover;fr18.mouseover" end="r18.mouseout;fr18.mouseout" to="visible"/> <set attributeName="filter" begin="r18.mouseover;fr18.mouseover" end="r18.mouseout;fr18.mouseout" to="url(#bgwhite)"/> <tspan x="750" dy="-3em">ID: ip0.qfi1.drb2.pdcp0.rlc1.roff0.lc32.tb0</tspan><tspan x="750" dy="1em">LAY: mac.harq.0</tspan><tspan x="750" dy="1em">DUR: 0.001202</tspan><tspan x="750" dy="1em">RTS: 0.006829</tspan></text><text x="1150" y="998" fill="#000" dominant-baseline="text-bottom" font-size="10" text-anchor="start" visibility="hidden"><set attributeName="visibility" begin="r19.mouseover;fr19.mouseover" end="r19.mouseout;fr19.mouseout" to="visible"/> <set attributeName="filter" begin="r19.mouseover;fr19.mouseover" end="r19.mouseout;fr19.mouseout" to="url(#bgwhite)"/> <tspan x="1150" dy="-3em">ID: ip0.qfi1.drb2.pdcp0.rlc1.roff0.lc32.tb0.phy0</tspan><tspan x="1150" dy="1em">LAY: phy.crc</tspan><tspan x="1150" dy="1em">DUR: 0.000332</tspan><tspan x="1150" dy="1em">RTS: 0.008031</tspan></text><text x="1154" y="998" fill="#000" dominant-baseline="text-bottom" font-size="10" text-anchor="start" visibility="hidden"><set attributeName="visibility" begin="r20.mouseover;fr20.mouseover" end="r20.mouseout;fr20.mouseout" to="visible"/> <set attributeName="filter" begin="r20.mouseover;fr20.mouseover" end="r20.mouseout;fr20.mouseout" to="url(#bgwhite)"/> <tspan x="1154" dy="-3em">ID: ip0.qfi1.drb2.pdcp0.rlc1.roff0.lc32.tb0.phy1</tspan><tspan x="1154" dy="1em">LAY: phy.crc</tspan><tspan x="1154" dy="1em">DUR: 0.000436</tspan><tspan x="1154" dy="1em">RTS: 0.008031</tspan></text><text x="1200" y="1031" fill="#000" dominant-baseline="text-bottom" font-size="10" text-anchor="start" visibility="hidden"><set attributeName="visibility" begin="r21.mouseover;fr21.mouseover" end="r21.mouseout;fr21.mouseout" to="visible"/> <set attributeName="filter" begin="r21.mouseover;fr21.mouseover" end="r21.mouseout;fr21.mouseout" to="url(#bgwhite)"/> <tspan x="1200" dy="-3em">ID: ip0.qfi1.drb2.pdcp0.rlc1.roff0.lc32.tb0.phy0</tspan><tspan x="1200" dy="1em">LAY: phy.cbseg</tspan><tspan x="1200" dy="1em">DUR: 0.000606</tspan><tspan x="1200" dy="1em">RTS: 0.008363</tspan></text><text x="1200" y="1041" fill="#000" dominant-baseline="text-bottom" font-size="10" text-anchor="start" visibility="hidden"><set attributeName="visibility" begin="r22.mouseover;fr22.mouseover" end="r22.mouseout;fr22.mouseout" to="visible"/> <set attributeName="filter" begin="r22.mouseover;fr22.mouseover" end="r22.mouseout;fr22.mouseout" to="url(#bgwhite)"/> <tspan x="1200" dy="-3em">ID: ip0.qfi1.drb2.pdcp0.rlc1.roff0.lc32.tb0.phy1</tspan><tspan x="1200" dy="1em">LAY: phy.cbseg</tspan><tspan x="1200" dy="1em">DUR: 0.001069</tspan><tspan x="1200" dy="1em">RTS: 0.008467</tspan></text><text x="1250" y="1091" fill="#000" dominant-baseline="text-bottom" font-size="10" text-anchor="start" visibility="hidden"><set attributeName="visibility" begin="r23.mouseover;fr23.mouseover" end="r23.mouseout;fr23.mouseout" to="visible"/> <set attributeName="filter" begin="r23.mouseover;fr23.mouseover" end="r23.mouseout;fr23.mouseout" to="url(#bgwhite)"/> <tspan x="1250" dy="-3em">ID: ip0.qfi1.drb2.pdcp0.rlc1.roff0.lc32.tb0</tspan><tspan x="1250" dy="1em">LAY: phy.msc</tspan><tspan x="1250" dy="1em">DUR: 0.001421</tspan><tspan x="1250" dy="1em">RTS: 0.008969</tspan></text><text x="1300" y="1234" fill="#000" dominant-baseline="text-bottom" font-size="10" text-anchor="start" visibility="hidden"><set attributeName="visibility" begin="r24.mouseover;fr24.mouseover" end="r24.mouseout;fr24.mouseout" to="visible"/> <set attributeName="filter" begin="r24.mouseover;fr24.mouseover" end="r24.mouseout;fr24.mouseout" to="url(#bgwhite)"/> <tspan x="1300" dy="-3em">ID: ip0.qfi1.drb2.pdcp0.rlc1.roff0.lc32.tb0</tspan><tspan x="1300" dy="1em">LAY: phy.mod</tspan><tspan x="1300" dy="1em">DUR: 0.000040</tspan><tspan x="1300" dy="1em">RTS: 0.010390</tspan></text><text x="1350" y="1238" fill="#000" dominant-baseline="text-bottom" font-size="10" text-anchor="start" visibility="hidden"><set attributeName="visibility" begin="r25.mouseover;fr25.mouseover" end="r25.mouseout;fr25.mouseout" to="visible"/> <set attributeName="filter" begin="r25.mouseover;fr25.mouseover" end="r25.mouseout;fr25.mouseout" to="url(#bgwhite)"/> <tspan x="1350" dy="-3em">ID: ip0.qfi1.drb2.pdcp0.rlc1.roff0.lc32.tb0</tspan><tspan x="1350" dy="1em">LAY: phy.map</tspan><tspan x="1350" dy="1em">DUR: 0.000108</tspan><tspan x="1350" dy="1em">RTS: 0.010430</tspan></text><text x="1400" y="1248" dominant-baseline="text-bottom" font-size="10" text-anchor="middle" visibility="hidden"><set attributeName="visibility" begin="p27.mouseover" end="p27.mouseout" to="visible"/> <set attributeName="filter" begin="p27.mouseover" end="p27.mouseout" to="url(#bgwhite)"/> <tspan x="1400" dy="-2em">ID: ip0.qfi1.drb2.pdcp0.rlc1.roff0.lc32.tb0</tspan><tspan x="1400" dy="1em">LAY: phy.ant</tspan><tspan x="1400" dy="1em">RTS: 0.010538</tspan></text><text x="1250" y="1148" dominant-baseline="text-bottom" font-size="10" text-anchor="middle" visibility="hidden"><set attributeName="visibility" begin="p29.mouseover" end="p29.mouseout" to="visible"/> <set attributeName="filter" begin="p29.mouseover" end="p29.mouseout" to="url(#bgwhite)"/> <tspan x="1250" dy="-2em">ID: ip0.qfi1.drb2.pdcp0.rlc1.roff0.lc32.tb0.phy1</tspan><tspan x="1250" dy="1em">LAY: phy.msc</tspan><tspan x="1250" dy="1em">RTS: 0.009536</tspan></text><text x="650" y="740" dominant-baseline="text-bottom" font-size="10" text-anchor="middle" visibility="hidden"><set attributeName="visibility" begin="p31.mouseover" end="p31.mouseout" to="visible"/> <set attributeName="filter" begin="p31.mouseover" end="p31.mouseout" to="url(#bgwhite)"/> <tspan x="650" dy="-2em">ID: ip0.qfi1.drb2.pdcp0.rlc1.roff1</tspan><tspan x="650" dy="1em">LAY: rlc.am.retbuf</tspan><tspan x="650" dy="1em">RTS: 0.005451</tspan></text><text x="800" y="941" dominant-baseline="text-bottom" font-size="10" text-anchor="middle" visibility="hidden"><set attributeName="visibility" begin="p33.mouseover" end="p33.mouseout" to="visible"/> <set attributeName="filter" begin="p33.mouseover" end="p33.mouseout" to="url(#bgwhite)"/> <tspan x="800" dy="-2em">ID: ip0.qfi1.drb2.pdcp0.rlc1.roff1.lc32.tb1</tspan><tspan x="800" dy="1em">LAY: mac.harq.1</tspan><tspan x="800" dy="1em">RTS: 0.007460</tspan></text><text x="650" y="649" dominant-baseline="text-bottom" font-size="10" text-anchor="middle" visibility="hidden"><set attributeName="visibility" begin="p35.mouseover" end="p35.mouseout" to="visible"/> <set attributeName="filter" begin="p35.mouseover" end="p35.mouseout" to="url(#bgwhite)"/> <tspan x="650" dy="-2em">ID: ip0.qfi1.drb2.pdcp0.rlc1.roff0</tspan><tspan x="650" dy="1em">LAY: rlc.am.retbuf</tspan><tspan x="650" dy="1em">RTS: 0.004541</tspan></text></g></svg>