<svg xmlns="http://www.w3.org/2000/svg" width="3000" height="50" version="1.1"><style>line.col{stroke-width:1;stroke:#000;stroke-dasharray:2 5}</style><defs><filter id="bgwhite" width="1" height="1" x="0" y="0"><feFlood flood-color="#fff"/><feComposite in="SourceGraphic" operator="over"/></filter></defs><g><line x1="100" x2="100" y1="150" y2="100%" class="col"/><line x1="150" x2="150" y1="150" y2="100%" class="col"/><line x1="200" x2="200" y1="150" y2="100%" class="col"/><line x1="250" x2="250" y1="150" y2="100%" class="col"/><line x1="300" x2="300" y1="150" y2="100%" class="col"/><line x1="350" x2="350" y1="150" y2="100%" class="col"/><line x1="400" x2="400" y1="150" y2="100%" class="col"/><line x1="450" x2="450" y1="150" y2="100%" class="col"/><line x1="500" x2="500" y1="150" y2="100%" class="col"/><line x1="550" x2="550" y1="150" y2="100%" class="col"/><line x1="600" x2="600" y1="150" y2="100%" class="col"/><line x1="650" x2="650" y1="150" y2="100%" class="col"/><line x1="700" x2="700" y1="150" y2="100%" class="col"/><line x1="750" x2="750" y1="150" y2="100%" class="col"/><line x1="800" x2="800" y1="150" y2="100%" class="col"/><line x1="850" x2="850" y1="150" y2="100%" class="col"/><line x1="900" x2="900" y1="150" y2="100%" class="col"/><line x1="950" x2="950" y1="150" y2="100%" class="col"/><line x1="1000" x2="1000" y1="150" y2="100%" class="col"/><line x1="1050" x2="1050" y1="150" y2="100%" class="col"/><line x1="1100" x2="1100" y1="150" y2="100%" class="col"/><line x1="1150" x2="1150" y1="150" y2="100%" class="col"/><line x1="1200" x2="1200" y1="150" y2="100%" class="col"/><line x1="1250" x2="1250" y1="150" y2="100%" class="col"/><line x1="1300" x2="1300" y1="150" y2="100%" class="col"/><line x1="1350" x2="1350" y1="150" y2="100%" class="col"/><line x1="1400" x2="1400" y1="150" y2="100%" class="col"/><line x1="1450" x2="1450" y1="150" y2="100%" class="col"/><text x="100" y="140" dominant-baseline="middle" text-anchor="start" transform="rotate(-90,100,140)">ip</text><text x="150" y="140" dominant-baseline="middle" text-anchor="start" transform="rotate(-90,150,140)">pdcp.in.tun</text><text x="200" y="140" dominant-baseline="middle" text-anchor="start" transform="rotate(-90,200,140)">pdcp.in.nl</text><text x="250" y="140" dominant-baseline="middle" text-anchor="start" transform="rotate(-90,250,140)">pdcp.in.gtp</text><text x="300" y="140" dominant-baseline="middle" text-anchor="start" transform="rotate(-90,300,140)">pdcp.in</text><text x="350" y="140" dominant-baseline="middle" text-anchor="start" transform="rotate(-90,350,140)">pdcp.tx</text><text x="400" y="140" dominant-baseline="middle" text-anchor="start" transform="rotate(-90,400,140)">rlc.tx.am</text><text x="450" y="140" dominant-baseline="middle" text-anchor="start" transform="rotate(-90,450,140)">rlc.seg.am</text><text x="500" y="140" dominant-baseline="middle" text-anchor="start" transform="rotate(-90,500,140)">rlc.tx.um</text><text x="550" y="140" dominant-baseline="middle" text-anchor="start" transform="rotate(-90,550,140)">rlc.seg.um</text><text x="600" y="140" dominant-baseline="middle" text-anchor="start" transform="rotate(-90,600,140)">rlc.tx.tm</text><text x="650" y="140" dominant-baseline="middle" text-anchor="start" transform="rotate(-90,650,140)">mac.mux</text><text x="700" y="140" dominant-baseline="middle" text-anchor="start" transform="rotate(-90,700,140)">mac.txreq</text><text x="750" y="140" dominant-baseline="middle" text-anchor="start" transform="rotate(-90,750,140)">phy.out.proc</text><text x="800" y="140" dominant-baseline="middle" text-anchor="start" transform="rotate(-90,800,140)">phy.out</text><text x="850" y="140" dominant-baseline="middle" text-anchor="start" transform="rotate(-90,850,140)">phy.in</text><text x="900" y="140" dominant-baseline="middle" text-anchor="start" transform="rotate(-90,900,140)">phy.in.proc</text><text x="950" y="140" dominant-baseline="middle" text-anchor="start" transform="rotate(-90,950,140)">mac.demux</text><text x="1000" y="140" dominant-baseline="middle" text-anchor="start" transform="rotate(-90,1000,140)">rlc.rx.am</text><text x="1050" y="140" dominant-baseline="middle" text-anchor="start" transform="rotate(-90,1050,140)">rlc.rx.um</text><text x="1100" y="140" dominant-baseline="middle" text-anchor="start" transform="rotate(-90,1100,140)">rlc.rx.tm</text><text x="1150" y="140" dominant-baseline="middle" text-anchor="start" transform="rotate(-90,1150,140)">rlc.unseg.um</text><text x="1200" y="140" dominant-baseline="middle" text-anchor="start" transform="rotate(-90,1200,140)">rlc.unseg.am</text><text x="1250" y="140" dominant-baseline="middle" text-anchor="start" transform="rotate(-90,1250,140)">pdcp.rx</text><text x="1300" y="140" dominant-baseline="middle" text-anchor="start" transform="rotate(-90,1300,140)">pdcp.out</text><text x="1350" y="140" dominant-baseline="middle" text-anchor="start" transform="rotate(-90,1350,140)">pdcp.out.nas</text><text x="1400" y="140" dominant-baseline="middle" text-anchor="start" transform="rotate(-90,1400,140)">pdcp.out.nl</text><text x="1450" y="140" dominant-baseline="middle" text-anchor="start" transform="rotate(-90,1450,140)">pdcp.out.gtp</text></g></svg>